<svg xmlns="http://www.w3.org/2000/svg" viewBox="0 0 900 900"><rect width="900" height="900" fill="#e6be32"/><g stroke="#f7dc6d" stroke-width="68" fill="none"><path d="M0 150H900M0 390H900M0 630H900M180 0V900M440 0V900M730 0V900"/></g><g fill="#d1a629"><rect x="239" y="212" width="137" height="113"/><rect x="503" y="452" width="165" height="110"/><rect x="501" y="44" width="165" height="52"/></g><path d="M180 650V390H730V150" fill="none" stroke="#243530" stroke-width="15" stroke-linejoin="round"/><circle cx="180" cy="650" r="41" fill="#243530"/><circle cx="730" cy="150" r="41" fill="#243530"/><g fill="#f6da65" font-family="Arial" font-size="35" text-anchor="middle" font-weight="bold"></g><g transform="translate(459 386)"><rect x="-68" y="-31" width="136" height="62" rx="15" fill="#21342e"/><rect x="-35" y="-24" width="53" height="48" rx="7" fill="#f3d867"/><rect x="-44" y="-17" width="9" height="34" fill="#a78323"/><rect x="20" y="-17" width="15" height="34" fill="#a78323"/></g><g fill="#243530"><path d="M599 815h90v-15l55 35 -55 35v-15h-90Z"/></g></svg>
